<?xml version="1.0" encoding="UTF-8" standalone="no"?>
<!DOCTYPE svg PUBLIC "-//W3C//DTD SVG 1.1//EN" "http://www.w3.org/Graphics/SVG/1.1/DTD/svg11.dtd">
<svg width="100%" height="100%" viewBox="0 0 642 743" version="1.1" xmlns="http://www.w3.org/2000/svg" xmlns:xlink="http://www.w3.org/1999/xlink" xml:space="preserve" xmlns:serif="http://www.serif.com/" style="fill-rule:evenodd;clip-rule:evenodd;stroke-linejoin:round;stroke-miterlimit:2;">
    <g transform="matrix(1,0,0,1,-4.04708,-3.74167)">
        <g id="Grande" transform="matrix(1,0,0,1,-901.283,-423.446)">
            <path d="M960.892,568.296L960.892,1169.7L1299.81,1169.7L1299.81,568.296L1355.36,568.296L1148.17,472.492L1130.35,427.187L1111.82,472.825L905.33,568.296L960.892,568.296ZM1159.98,694.037L1159.98,761.033L1100.72,761.033L1100.72,694.037C1100.72,679.342 1113.98,667.425 1130.35,667.425C1146.71,667.425 1159.98,679.342 1159.98,694.037Z" style="fill:rgb(0,109,131);"/>
        </g>
        <g id="Med" transform="matrix(1,0,0,1,-867.686,-378.648)">
            <path d="M1165.96,1124.91L1165.96,716.09L1127.12,716.09L1320.38,617.035L1513.64,716.09L1476.19,716.09L1476.19,1124.91L1165.96,1124.91ZM1351.4,884.21L1292.13,884.21L1292.13,817.215C1292.13,802.519 1305.4,790.602 1321.77,790.602C1338.13,790.602 1351.4,802.519 1351.4,817.215L1351.4,884.21Z" style="fill:rgb(0,156,187);"/>
        </g>
        <g id="Peq" transform="matrix(1,0,0,1,-901.283,-423.446)">
            <path d="M1171.86,1169.7L1099.63,1169.7L1099.63,929.004L1073.87,929.004L1199.55,847.821L1199.55,847.821L1325.24,929.004L1299.47,929.004L1299.47,1169.7L1226.28,1169.7L1226.28,1102.71C1226.28,1088.32 1214.4,1076.6 1199.55,1076.11L1199.55,1076.09C1199.37,1076.09 1199.19,1076.1 1199.01,1076.1C1198.87,1076.1 1198.73,1076.1 1198.6,1076.1L1198.6,1076.11C1183.75,1076.59 1171.86,1088.32 1171.86,1102.71L1171.86,1169.7Z" style="fill:rgb(121,251,255);"/>
        </g>
    </g>
</svg>
